<svg version="1.0" xmlns="http://www.w3.org/2000/svg" width="512.000000ptpx" height="512.000000ptpx" viewBox="0 0 512.000000 512.000000" preserveAspectRatio="xMidYMid meet" transform="rotate(0) scale(1, 1)">

<g transform="translate(0.000000,512.000000) scale(0.100000,-0.100000)" fill="#13b2ba" stroke="none">
<path d="M2015 4786 c-41 -18 -83 -69 -90 -109 -3 -18 -4 -982 -3 -2144 l3&#10;-2112 21 -27 c31 -42 67 -65 110 -70 29 -4 321 59 1101 239 583 135 1070 250&#10;1082 256 11 6 33 28 48 48 l28 36 0 1658 0 1658 -21 27 c-11 15 -31 36 -45 46&#10;-25 19 -2124 508 -2177 508 -15 -1 -41 -7 -57 -14z m633 -1773 c14 -10 35 -32&#10;46 -47 20 -27 21 -39 21 -406 0 -367 -1 -379 -21 -406 -39 -53 -71 -69 -134&#10;-69 -63 0 -95 16 -134 69 -20 26 -21 42 -24 379 -2 194 0 366 3 384 7 40 49&#10;91 90 109 40 19 120 12 153 -13z"/>
<path d="M895 4306 c-41 -18 -83 -69 -90 -109 -3 -18 -4 -766 -3 -1664 3&#10;-1630 3 -1632 24 -1659 11 -15 33 -37 48 -48 26 -20 42 -21 377 -24 l349 -3 0&#10;1761 0 1760 -337 0 c-258 -1 -345 -4 -368 -14z"/>
</g>
</svg>